<?xml version="1.0" encoding="UTF-8" standalone="no"?>
<!DOCTYPE svg PUBLIC "-//W3C//DTD SVG 1.1//EN"
 "http://www.w3.org/Graphics/SVG/1.1/DTD/svg11.dtd">
<!-- Generated by graphviz version 2.36.0 (20140111.2315)
 -->
<!-- Title: Evaluating Pages: 1 -->
<svg width="552pt" height="731pt"
 viewBox="0.00 0.00 552.00 731.00" xmlns="http://www.w3.org/2000/svg" xmlns:xlink="http://www.w3.org/1999/xlink">
<g id="graph0" class="graph" transform="scale(1 1) rotate(0) translate(4 727)">
<title>Evaluating</title>
<polygon fill="white" stroke="none" points="-4,4 -4,-727 548,-727 548,4 -4,4"/>
<text text-anchor="middle" x="272" y="-7.8" font-family="Times,serif" font-size="14.00">Evaluating</text>
<!-- Meeting -->
<g id="node1" class="node"><title>Meeting</title>
<ellipse fill="none" stroke="black" cx="41" cy="-394" rx="40.0939" ry="18"/>
<text text-anchor="middle" x="41" y="-390.3" font-family="Times,serif" font-size="14.00">Meeting</text>
</g>
<!-- Questionnaire -->
<g id="node2" class="node"><title>Questionnaire</title>
<ellipse fill="none" stroke="black" cx="178" cy="-570" rx="59.5901" ry="18"/>
<text text-anchor="middle" x="178" y="-566.3" font-family="Times,serif" font-size="14.00">Questionnaire</text>
</g>
<!-- Meeting&#45;&gt;Questionnaire -->
<g id="edge1" class="edge"><title>Meeting&#45;&gt;Questionnaire</title>
<path fill="none" stroke="black" d="M55.1902,-411.196C79.0221,-442.266 129.369,-507.904 157.297,-544.313"/>
<polygon fill="black" stroke="black" points="154.693,-546.669 163.556,-552.473 160.247,-542.409 154.693,-546.669"/>
</g>
<!-- Summoned -->
<g id="node8" class="node"><title>Summoned</title>
<ellipse fill="none" stroke="black" cx="178" cy="-394" rx="51.9908" ry="18"/>
<text text-anchor="middle" x="178" y="-390.3" font-family="Times,serif" font-size="14.00">Summoned</text>
</g>
<!-- Meeting&#45;&gt;Summoned -->
<g id="edge7" class="edge"><title>Meeting&#45;&gt;Summoned</title>
<path fill="none" stroke="black" d="M81.4105,-394C92.125,-394 103.989,-394 115.609,-394"/>
<polygon fill="black" stroke="black" points="115.723,-397.5 125.723,-394 115.723,-390.5 115.723,-397.5"/>
</g>
<!-- Participating -->
<g id="node11" class="node"><title>Participating</title>
<ellipse fill="none" stroke="black" cx="178" cy="-313" rx="55.7903" ry="18"/>
<text text-anchor="middle" x="178" y="-309.3" font-family="Times,serif" font-size="14.00">Participating</text>
</g>
<!-- Meeting&#45;&gt;Participating -->
<g id="edge10" class="edge"><title>Meeting&#45;&gt;Participating</title>
<path fill="none" stroke="black" d="M65.8245,-379.705C86.9003,-367.06 117.931,-348.441 141.857,-334.086"/>
<polygon fill="black" stroke="black" points="143.87,-336.96 150.644,-328.814 140.268,-330.957 143.87,-336.96"/>
</g>
<!-- Q_1 -->
<g id="node3" class="node"><title>Q_1</title>
<polygon fill="none" stroke="black" points="329,-723 275,-723 275,-687 329,-687 329,-723"/>
<text text-anchor="middle" x="302" y="-701.3" font-family="Times,serif" font-size="14.00">Q_1</text>
</g>
<!-- Questionnaire&#45;&gt;Q_1 -->
<g id="edge2" class="edge"><title>Questionnaire&#45;&gt;Q_1</title>
<path fill="none" stroke="black" d="M193.803,-587.512C212.213,-609.13 244.786,-646.856 274,-678 274.51,-678.544 275.028,-679.092 275.551,-679.643"/>
<polygon fill="black" stroke="black" points="273.067,-682.11 282.539,-686.856 278.094,-677.239 273.067,-682.11"/>
</g>
<!-- Q_2 -->
<g id="node4" class="node"><title>Q_2</title>
<polygon fill="none" stroke="black" points="329,-669 275,-669 275,-633 329,-633 329,-669"/>
<text text-anchor="middle" x="302" y="-647.3" font-family="Times,serif" font-size="14.00">Q_2</text>
</g>
<!-- Questionnaire&#45;&gt;Q_2 -->
<g id="edge3" class="edge"><title>Questionnaire&#45;&gt;Q_2</title>
<path fill="none" stroke="black" d="M203.689,-586.392C221.641,-598.311 246.192,-614.611 266.141,-627.856"/>
<polygon fill="black" stroke="black" points="264.392,-630.896 274.659,-633.511 268.264,-625.064 264.392,-630.896"/>
</g>
<!-- Q_3 -->
<g id="node5" class="node"><title>Q_3</title>
<polygon fill="none" stroke="black" points="329,-615 275,-615 275,-579 329,-579 329,-615"/>
<text text-anchor="middle" x="302" y="-593.3" font-family="Times,serif" font-size="14.00">Q_3</text>
</g>
<!-- Questionnaire&#45;&gt;Q_3 -->
<g id="edge4" class="edge"><title>Questionnaire&#45;&gt;Q_3</title>
<path fill="none" stroke="black" d="M226.867,-580.594C239.466,-583.382 252.848,-586.343 264.725,-588.972"/>
<polygon fill="black" stroke="black" points="264.198,-592.44 274.718,-591.183 265.71,-585.605 264.198,-592.44"/>
</g>
<!-- Q_4 -->
<g id="node6" class="node"><title>Q_4</title>
<polygon fill="none" stroke="black" points="329,-561 275,-561 275,-525 329,-525 329,-561"/>
<text text-anchor="middle" x="302" y="-539.3" font-family="Times,serif" font-size="14.00">Q_4</text>
</g>
<!-- Questionnaire&#45;&gt;Q_4 -->
<g id="edge5" class="edge"><title>Questionnaire&#45;&gt;Q_4</title>
<path fill="none" stroke="black" d="M226.867,-559.406C239.466,-556.618 252.848,-553.657 264.725,-551.028"/>
<polygon fill="black" stroke="black" points="265.71,-554.395 274.718,-548.817 264.198,-547.56 265.71,-554.395"/>
</g>
<!-- Q_n -->
<g id="node7" class="node"><title>Q_n</title>
<polygon fill="none" stroke="black" points="329,-507 275,-507 275,-471 329,-471 329,-507"/>
<text text-anchor="middle" x="302" y="-485.3" font-family="Times,serif" font-size="14.00">Q_n</text>
</g>
<!-- Questionnaire&#45;&gt;Q_n -->
<g id="edge6" class="edge"><title>Questionnaire&#45;&gt;Q_n</title>
<path fill="none" stroke="black" d="M203.689,-553.608C221.641,-541.689 246.192,-525.389 266.141,-512.144"/>
<polygon fill="black" stroke="black" points="268.264,-514.936 274.659,-506.489 264.392,-509.104 268.264,-514.936"/>
</g>
<!-- User_1 -->
<g id="node9" class="node"><title>User_1</title>
<polygon fill="none" stroke="black" points="330,-453 274,-453 274,-417 330,-417 330,-453"/>
<text text-anchor="middle" x="302" y="-431.3" font-family="Times,serif" font-size="14.00">User_1</text>
</g>
<!-- Summoned&#45;&gt;User_1 -->
<g id="edge8" class="edge"><title>Summoned&#45;&gt;User_1</title>
<path fill="none" stroke="black" d="M215.935,-406.413C231.238,-411.555 248.948,-417.507 264.233,-422.644"/>
<polygon fill="black" stroke="black" points="263.284,-426.017 273.878,-425.885 265.514,-419.382 263.284,-426.017"/>
</g>
<!-- User_n -->
<g id="node10" class="node"><title>User_n</title>
<polygon fill="none" stroke="black" points="330,-399 274,-399 274,-363 330,-363 330,-399"/>
<text text-anchor="middle" x="302" y="-377.3" font-family="Times,serif" font-size="14.00">User_n</text>
</g>
<!-- Summoned&#45;&gt;User_n -->
<g id="edge9" class="edge"><title>Summoned&#45;&gt;User_n</title>
<path fill="none" stroke="black" d="M227.919,-388.787C239.897,-387.511 252.523,-386.166 263.847,-384.959"/>
<polygon fill="black" stroke="black" points="264.252,-388.436 273.825,-383.896 263.51,-381.475 264.252,-388.436"/>
</g>
<!-- User_2 -->
<g id="node12" class="node"><title>User_2</title>
<polygon fill="none" stroke="black" points="330,-345 274,-345 274,-309 330,-309 330,-345"/>
<text text-anchor="middle" x="302" y="-323.3" font-family="Times,serif" font-size="14.00">User_2</text>
</g>
<!-- Participating&#45;&gt;User_2 -->
<g id="edge11" class="edge"><title>Participating&#45;&gt;User_2</title>
<path fill="none" stroke="black" d="M231.093,-318.978C242.168,-320.249 253.642,-321.566 264.015,-322.756"/>
<polygon fill="black" stroke="black" points="263.631,-326.235 273.964,-323.898 264.429,-319.28 263.631,-326.235"/>
</g>
<!-- User_3 -->
<g id="node13" class="node"><title>User_3</title>
<polygon fill="none" stroke="black" points="330,-291 274,-291 274,-255 330,-255 330,-291"/>
<text text-anchor="middle" x="302" y="-269.3" font-family="Times,serif" font-size="14.00">User_3</text>
</g>
<!-- Participating&#45;&gt;User_3 -->
<g id="edge12" class="edge"><title>Participating&#45;&gt;User_3</title>
<path fill="none" stroke="black" d="M217.937,-300.234C232.782,-295.367 249.641,-289.839 264.274,-285.041"/>
<polygon fill="black" stroke="black" points="265.585,-288.295 273.996,-281.854 263.404,-281.643 265.585,-288.295"/>
</g>
<!-- User_4 -->
<g id="node14" class="node"><title>User_4</title>
<polygon fill="none" stroke="black" points="330,-217 274,-217 274,-181 330,-181 330,-217"/>
<text text-anchor="middle" x="302" y="-195.3" font-family="Times,serif" font-size="14.00">User_4</text>
</g>
<!-- Participating&#45;&gt;User_4 -->
<g id="edge13" class="edge"><title>Participating&#45;&gt;User_4</title>
<path fill="none" stroke="black" d="M197.265,-295.933C217.57,-276.959 250.571,-246.122 273.891,-224.331"/>
<polygon fill="black" stroke="black" points="276.479,-226.703 281.396,-217.318 271.7,-221.588 276.479,-226.703"/>
</g>
<!-- Feedback_2 -->
<g id="node15" class="node"><title>Feedback_2</title>
<ellipse fill="lightblue" stroke="black" cx="410" cy="-338" rx="44.393" ry="18"/>
<text text-anchor="middle" x="410" y="-334.3" font-family="Times,serif" font-size="14.00">Feedback</text>
</g>
<!-- User_2&#45;&gt;Feedback_2 -->
<g id="edge14" class="edge"><title>User_2&#45;&gt;Feedback_2</title>
<path fill="none" stroke="black" d="M330.023,-329.804C338.221,-330.655 347.521,-331.62 356.789,-332.582"/>
<polygon fill="black" stroke="black" points="356.471,-336.068 366.779,-333.619 357.194,-329.105 356.471,-336.068"/>
</g>
<!-- Feedback_4 -->
<g id="node16" class="node"><title>Feedback_4</title>
<ellipse fill="lightblue" stroke="black" cx="410" cy="-159" rx="44.393" ry="18"/>
<text text-anchor="middle" x="410" y="-155.3" font-family="Times,serif" font-size="14.00">Feedback</text>
</g>
<!-- User_4&#45;&gt;Feedback_4 -->
<g id="edge15" class="edge"><title>User_4&#45;&gt;Feedback_4</title>
<path fill="none" stroke="black" d="M330.023,-188.803C341.362,-184.524 354.81,-179.449 367.365,-174.711"/>
<polygon fill="black" stroke="black" points="368.622,-177.978 376.742,-171.173 366.15,-171.429 368.622,-177.978"/>
</g>
<!-- A_2_1 -->
<g id="node17" class="node"><title>A_2_1</title>
<polygon fill="lightblue" stroke="black" points="544,-437 490,-437 490,-401 544,-401 544,-437"/>
<text text-anchor="middle" x="517" y="-415.3" font-family="Times,serif" font-size="14.00">A_1</text>
</g>
<!-- Feedback_2&#45;&gt;A_2_1 -->
<g id="edge16" class="edge"><title>Feedback_2&#45;&gt;A_2_1</title>
<path fill="none" stroke="black" d="M431.494,-353.81C446.573,-365.442 467.348,-381.469 484.526,-394.72"/>
<polygon fill="black" stroke="black" points="482.573,-397.634 492.629,-400.971 486.849,-392.092 482.573,-397.634"/>
</g>
<!-- A_2_2 -->
<g id="node18" class="node"><title>A_2_2</title>
<polygon fill="lightblue" stroke="black" points="544,-383 490,-383 490,-347 544,-347 544,-383"/>
<text text-anchor="middle" x="517" y="-361.3" font-family="Times,serif" font-size="14.00">A_2</text>
</g>
<!-- Feedback_2&#45;&gt;A_2_2 -->
<g id="edge17" class="edge"><title>Feedback_2&#45;&gt;A_2_2</title>
<path fill="none" stroke="black" d="M447.724,-347.443C458.103,-350.112 469.388,-353.014 479.74,-355.676"/>
<polygon fill="black" stroke="black" points="479.155,-359.139 489.712,-358.24 480.898,-352.36 479.155,-359.139"/>
</g>
<!-- A_2_3 -->
<g id="node19" class="node"><title>A_2_3</title>
<polygon fill="lightblue" stroke="black" points="544,-329 490,-329 490,-293 544,-293 544,-329"/>
<text text-anchor="middle" x="517" y="-307.3" font-family="Times,serif" font-size="14.00">A_3</text>
</g>
<!-- Feedback_2&#45;&gt;A_2_3 -->
<g id="edge18" class="edge"><title>Feedback_2&#45;&gt;A_2_3</title>
<path fill="none" stroke="black" d="M447.724,-328.557C458.103,-325.888 469.388,-322.986 479.74,-320.324"/>
<polygon fill="black" stroke="black" points="480.898,-323.64 489.712,-317.76 479.155,-316.861 480.898,-323.64"/>
</g>
<!-- A_4_1 -->
<g id="node20" class="node"><title>A_4_1</title>
<polygon fill="lightblue" stroke="black" points="544,-275 490,-275 490,-239 544,-239 544,-275"/>
<text text-anchor="middle" x="517" y="-253.3" font-family="Times,serif" font-size="14.00">A_1</text>
</g>
<!-- Feedback_4&#45;&gt;A_4_1 -->
<g id="edge19" class="edge"><title>Feedback_4&#45;&gt;A_4_1</title>
<path fill="none" stroke="black" d="M428.812,-175.624C445.371,-191.079 470.262,-214.312 489.216,-232.001"/>
<polygon fill="black" stroke="black" points="486.976,-234.698 496.674,-238.963 491.752,-229.581 486.976,-234.698"/>
</g>
<!-- A_4_2 -->
<g id="node21" class="node"><title>A_4_2</title>
<polygon fill="lightblue" stroke="black" points="544,-221 490,-221 490,-185 544,-185 544,-221"/>
<text text-anchor="middle" x="517" y="-199.3" font-family="Times,serif" font-size="14.00">A_2</text>
</g>
<!-- Feedback_4&#45;&gt;A_4_2 -->
<g id="edge20" class="edge"><title>Feedback_4&#45;&gt;A_4_2</title>
<path fill="none" stroke="black" d="M441.37,-171.727C453.63,-176.864 467.859,-182.827 480.586,-188.16"/>
<polygon fill="black" stroke="black" points="479.391,-191.454 489.967,-192.091 482.097,-184.998 479.391,-191.454"/>
</g>
<!-- A_4_3 -->
<g id="node22" class="node"><title>A_4_3</title>
<polygon fill="lightblue" stroke="black" points="544,-167 490,-167 490,-131 544,-131 544,-167"/>
<text text-anchor="middle" x="517" y="-145.3" font-family="Times,serif" font-size="14.00">A_3</text>
</g>
<!-- Feedback_4&#45;&gt;A_4_3 -->
<g id="edge21" class="edge"><title>Feedback_4&#45;&gt;A_4_3</title>
<path fill="none" stroke="black" d="M453.103,-154.99C461.945,-154.148 471.198,-153.267 479.801,-152.447"/>
<polygon fill="black" stroke="black" points="480.281,-155.918 489.904,-151.485 479.617,-148.949 480.281,-155.918"/>
</g>
<!-- A_4_4 -->
<g id="node23" class="node"><title>A_4_4</title>
<polygon fill="lightblue" stroke="black" points="544,-113 490,-113 490,-77 544,-77 544,-113"/>
<text text-anchor="middle" x="517" y="-91.3" font-family="Times,serif" font-size="14.00">A_4</text>
</g>
<!-- Feedback_4&#45;&gt;A_4_4 -->
<g id="edge22" class="edge"><title>Feedback_4&#45;&gt;A_4_4</title>
<path fill="none" stroke="black" d="M435.353,-144.156C449.027,-135.822 466.317,-125.283 481.378,-116.103"/>
<polygon fill="black" stroke="black" points="483.227,-119.075 489.944,-110.882 479.583,-113.098 483.227,-119.075"/>
</g>
<!-- A_4_n -->
<g id="node24" class="node"><title>A_4_n</title>
<polygon fill="lightblue" stroke="black" points="544,-59 490,-59 490,-23 544,-23 544,-59"/>
<text text-anchor="middle" x="517" y="-37.3" font-family="Times,serif" font-size="14.00">A_n</text>
</g>
<!-- Feedback_4&#45;&gt;A_4_n -->
<g id="edge23" class="edge"><title>Feedback_4&#45;&gt;A_4_n</title>
<path fill="none" stroke="black" d="M425.304,-142C440.936,-123.546 466.846,-93.3208 490,-68 490.412,-67.5498 490.828,-67.0963 491.248,-66.6405"/>
<polygon fill="black" stroke="black" points="493.959,-68.8663 498.249,-59.1786 488.854,-64.0769 493.959,-68.8663"/>
</g>
</g>
</svg>
