<?xml version="1.0" encoding="UTF-8" standalone="no"?>
<!DOCTYPE svg PUBLIC "-//W3C//DTD SVG 1.1//EN"
 "http://www.w3.org/Graphics/SVG/1.1/DTD/svg11.dtd">
<!-- Generated by graphviz version 2.38.0 (20140413.2041)
 -->
<!-- Title: Participating Pages: 1 -->
<svg width="380pt" height="553pt"
 viewBox="0.00 0.00 379.88 553.00" xmlns="http://www.w3.org/2000/svg" xmlns:xlink="http://www.w3.org/1999/xlink">
<g id="graph0" class="graph" transform="scale(1 1) rotate(0) translate(4 549)">
<title>Participating</title>
<polygon fill="white" stroke="none" points="-4,4 -4,-549 375.879,-549 375.879,4 -4,4"/>
<text text-anchor="middle" x="185.939" y="-7.8" font-family="Times,serif" font-size="14.00">Participating</text>
<!-- Meeting -->
<g id="node1" class="node"><title>Meeting</title>
<ellipse fill="none" stroke="black" cx="44.846" cy="-216" rx="44.6926" ry="18"/>
<text text-anchor="middle" x="44.846" y="-212.3" font-family="Times,serif" font-size="14.00">Meeting</text>
</g>
<!-- Questionnaire -->
<g id="node2" class="node"><title>Questionnaire</title>
<ellipse fill="none" stroke="black" cx="199.785" cy="-392" rx="74.187" ry="18"/>
<text text-anchor="middle" x="199.785" y="-388.3" font-family="Times,serif" font-size="14.00">Questionnaire</text>
</g>
<!-- Meeting&#45;&gt;Questionnaire -->
<g id="edge1" class="edge"><title>Meeting&#45;&gt;Questionnaire</title>
<path fill="none" stroke="black" d="M60.5105,-232.876C87.4795,-263.911 145.082,-330.199 176.767,-366.662"/>
<polygon fill="black" stroke="black" points="174.286,-369.142 183.487,-374.395 179.57,-364.551 174.286,-369.142"/>
</g>
<!-- Summoned -->
<g id="node8" class="node"><title>Summoned</title>
<ellipse fill="none" stroke="black" cx="199.785" cy="-216" rx="50.0912" ry="18"/>
<text text-anchor="middle" x="199.785" y="-212.3" font-family="Times,serif" font-size="14.00">Summoned</text>
</g>
<!-- Meeting&#45;&gt;Summoned -->
<g id="edge7" class="edge"><title>Meeting&#45;&gt;Summoned</title>
<path fill="none" stroke="black" d="M90.0824,-216C105.498,-216 123.052,-216 139.49,-216"/>
<polygon fill="black" stroke="black" points="139.551,-219.5 149.551,-216 139.551,-212.5 139.551,-219.5"/>
</g>
<!-- Participating -->
<g id="node11" class="node"><title>Participating</title>
<ellipse fill="lightblue" stroke="black" cx="199.785" cy="-135" rx="74.187" ry="18"/>
<text text-anchor="middle" x="199.785" y="-131.3" font-family="Times,serif" font-size="14.00">Participating</text>
</g>
<!-- Meeting&#45;&gt;Participating -->
<g id="edge10" class="edge"><title>Meeting&#45;&gt;Participating</title>
<path fill="none" stroke="black" d="M72.8365,-201.705C96.7202,-189.056 131.889,-170.43 158.998,-156.072"/>
<polygon fill="black" stroke="black" points="160.656,-159.155 167.855,-151.382 157.379,-152.969 160.656,-159.155"/>
</g>
<!-- Q_1 -->
<g id="node3" class="node"><title>Q_1</title>
<polygon fill="none" stroke="black" points="367.879,-545 313.879,-545 313.879,-509 367.879,-509 367.879,-545"/>
<text text-anchor="middle" x="340.879" y="-523.3" font-family="Times,serif" font-size="14.00">Q_1</text>
</g>
<!-- Questionnaire&#45;&gt;Q_1 -->
<g id="edge2" class="edge"><title>Questionnaire&#45;&gt;Q_1</title>
<path fill="none" stroke="black" d="M217.919,-409.466C239.196,-431.038 276.739,-468.716 309.879,-500 310.548,-500.631 311.227,-501.269 311.913,-501.91"/>
<polygon fill="black" stroke="black" points="309.7,-504.63 319.427,-508.829 314.442,-499.481 309.7,-504.63"/>
</g>
<!-- Q_2 -->
<g id="node4" class="node"><title>Q_2</title>
<polygon fill="none" stroke="black" points="367.879,-491 313.879,-491 313.879,-455 367.879,-455 367.879,-491"/>
<text text-anchor="middle" x="340.879" y="-469.3" font-family="Times,serif" font-size="14.00">Q_2</text>
</g>
<!-- Questionnaire&#45;&gt;Q_2 -->
<g id="edge3" class="edge"><title>Questionnaire&#45;&gt;Q_2</title>
<path fill="none" stroke="black" d="M229.269,-408.587C251.16,-421.335 281.509,-439.009 304.881,-452.619"/>
<polygon fill="black" stroke="black" points="303.38,-455.795 313.783,-457.803 306.903,-449.746 303.38,-455.795"/>
</g>
<!-- Q_3 -->
<g id="node5" class="node"><title>Q_3</title>
<polygon fill="none" stroke="black" points="367.879,-437 313.879,-437 313.879,-401 367.879,-401 367.879,-437"/>
<text text-anchor="middle" x="340.879" y="-415.3" font-family="Times,serif" font-size="14.00">Q_3</text>
</g>
<!-- Questionnaire&#45;&gt;Q_3 -->
<g id="edge4" class="edge"><title>Questionnaire&#45;&gt;Q_3</title>
<path fill="none" stroke="black" d="M258.163,-403.138C273.548,-406.124 289.754,-409.27 303.64,-411.966"/>
<polygon fill="black" stroke="black" points="303.271,-415.459 313.755,-413.929 304.605,-408.587 303.271,-415.459"/>
</g>
<!-- Q_4 -->
<g id="node6" class="node"><title>Q_4</title>
<polygon fill="none" stroke="black" points="367.879,-383 313.879,-383 313.879,-347 367.879,-347 367.879,-383"/>
<text text-anchor="middle" x="340.879" y="-361.3" font-family="Times,serif" font-size="14.00">Q_4</text>
</g>
<!-- Questionnaire&#45;&gt;Q_4 -->
<g id="edge5" class="edge"><title>Questionnaire&#45;&gt;Q_4</title>
<path fill="none" stroke="black" d="M258.163,-380.862C273.548,-377.876 289.754,-374.73 303.64,-372.034"/>
<polygon fill="black" stroke="black" points="304.605,-375.413 313.755,-370.071 303.271,-368.541 304.605,-375.413"/>
</g>
<!-- Q_n -->
<g id="node7" class="node"><title>Q_n</title>
<polygon fill="none" stroke="black" points="367.879,-329 313.879,-329 313.879,-293 367.879,-293 367.879,-329"/>
<text text-anchor="middle" x="340.879" y="-307.3" font-family="Times,serif" font-size="14.00">Q_n</text>
</g>
<!-- Questionnaire&#45;&gt;Q_n -->
<g id="edge6" class="edge"><title>Questionnaire&#45;&gt;Q_n</title>
<path fill="none" stroke="black" d="M229.269,-375.413C251.16,-362.665 281.509,-344.991 304.881,-331.381"/>
<polygon fill="black" stroke="black" points="306.903,-334.254 313.783,-326.197 303.38,-328.205 306.903,-334.254"/>
</g>
<!-- User_1 -->
<g id="node9" class="node"><title>User_1</title>
<polygon fill="none" stroke="black" points="371.879,-275 309.879,-275 309.879,-239 371.879,-239 371.879,-275"/>
<text text-anchor="middle" x="340.879" y="-253.3" font-family="Times,serif" font-size="14.00">User_1</text>
</g>
<!-- Summoned&#45;&gt;User_1 -->
<g id="edge8" class="edge"><title>Summoned&#45;&gt;User_1</title>
<path fill="none" stroke="black" d="M239.162,-227.312C258.061,-232.883 280.832,-239.595 299.938,-245.227"/>
<polygon fill="black" stroke="black" points="298.974,-248.591 309.556,-248.062 300.953,-241.877 298.974,-248.591"/>
</g>
<!-- User_n -->
<g id="node10" class="node"><title>User_n</title>
<polygon fill="none" stroke="black" points="371.879,-221 309.879,-221 309.879,-185 371.879,-185 371.879,-221"/>
<text text-anchor="middle" x="340.879" y="-199.3" font-family="Times,serif" font-size="14.00">User_n</text>
</g>
<!-- Summoned&#45;&gt;User_n -->
<g id="edge9" class="edge"><title>Summoned&#45;&gt;User_n</title>
<path fill="none" stroke="black" d="M248.654,-211.526C265.285,-209.972 283.754,-208.246 299.7,-206.755"/>
<polygon fill="black" stroke="black" points="300.139,-210.23 309.77,-205.814 299.488,-203.26 300.139,-210.23"/>
</g>
<!-- User_2 -->
<g id="node12" class="node"><title>User_2</title>
<polygon fill="lightyellow" stroke="black" points="371.879,-167 309.879,-167 309.879,-131 371.879,-131 371.879,-167"/>
<text text-anchor="middle" x="340.879" y="-145.3" font-family="Times,serif" font-size="14.00">User_2</text>
</g>
<!-- Participating&#45;&gt;User_2 -->
<g id="edge11" class="edge"><title>Participating&#45;&gt;User_2</title>
<path fill="none" stroke="black" d="M268.702,-141.836C279.236,-142.896 289.82,-143.961 299.486,-144.934"/>
<polygon fill="black" stroke="black" points="299.269,-148.43 309.569,-145.949 299.97,-141.465 299.269,-148.43"/>
</g>
<!-- User_3 -->
<g id="node13" class="node"><title>User_3</title>
<polygon fill="lightyellow" stroke="black" points="371.879,-113 309.879,-113 309.879,-77 371.879,-77 371.879,-113"/>
<text text-anchor="middle" x="340.879" y="-91.3" font-family="Times,serif" font-size="14.00">User_3</text>
</g>
<!-- Participating&#45;&gt;User_3 -->
<g id="edge12" class="edge"><title>Participating&#45;&gt;User_3</title>
<path fill="none" stroke="black" d="M248.265,-121.346C265.079,-116.511 283.814,-111.123 299.938,-106.486"/>
<polygon fill="black" stroke="black" points="300.957,-109.835 309.6,-103.708 299.022,-103.108 300.957,-109.835"/>
</g>
<!-- User_4 -->
<g id="node14" class="node"><title>User_4</title>
<polygon fill="lightyellow" stroke="black" points="371.879,-59 309.879,-59 309.879,-23 371.879,-23 371.879,-59"/>
<text text-anchor="middle" x="340.879" y="-37.3" font-family="Times,serif" font-size="14.00">User_4</text>
</g>
<!-- Participating&#45;&gt;User_4 -->
<g id="edge13" class="edge"><title>Participating&#45;&gt;User_4</title>
<path fill="none" stroke="black" d="M225.974,-117.977C247.964,-103.117 280.107,-81.394 304.646,-64.8107"/>
<polygon fill="black" stroke="black" points="306.654,-67.6782 312.979,-59.179 302.734,-61.8784 306.654,-67.6782"/>
</g>
</g>
</svg>
